G04 Layer: TopLayer*
G04 EasyEDA v6.5.22, 2023-01-29 16:20:57*
G04 7520cde8495a43b9bb6cbe3639bf649a,cd312f753a894c7fad135853063bf967,10*
G04 Gerber Generator version 0.2*
G04 Scale: 100 percent, Rotated: No, Reflected: No *
G04 Dimensions in millimeters *
G04 leading zeros omitted , absolute positions ,4 integer and 5 decimal *
%FSLAX45Y45*%
%MOMM*%

%AMMACRO1*21,1,$1,$2,0,0,$3*%
%ADD10C,0.7000*%
%ADD11C,0.5000*%
%ADD12R,1.2500X0.7000*%
%ADD13R,0.5500X1.0000*%
%ADD14MACRO1,1.35X1.41X0.0000*%
%ADD15R,1.3500X1.4100*%
%ADD16MACRO1,1.377X1.1325X0.0000*%
%ADD17R,1.3770X1.1325*%
%ADD18C,2.0000*%

%LPD*%
D10*
X1155700Y-1168400D02*
G01*
X1066800Y-1257300D01*
X889000Y-1257300D01*
X812800Y-1181100D01*
X773099Y-1181100D01*
D11*
X573100Y-1086104D02*
G01*
X983995Y-1086104D01*
X1117600Y-952500D01*
X1219200Y-952500D01*
X1295400Y-876300D01*
X1295400Y-785799D01*
D10*
X228600Y-482600D02*
G01*
X50800Y-660400D01*
X50800Y-1079500D01*
X139700Y-1168400D01*
X317500Y-1168400D01*
X419100Y-1270000D01*
X571500Y-1270000D01*
X228600Y-736600D02*
G01*
X228600Y-990600D01*
X508000Y-849299D02*
G01*
X357200Y-849299D01*
X244500Y-736600D01*
X228600Y-736600D01*
X508000Y-649300D02*
G01*
X395300Y-649300D01*
X228600Y-482600D01*
X228600Y-482600D01*
X914400Y-711200D02*
G01*
X647700Y-711200D01*
X585800Y-649300D01*
X508000Y-649300D01*
D11*
X927100Y-571195D02*
G01*
X927100Y-711200D01*
D10*
X736600Y-228600D02*
G01*
X736600Y-114300D01*
X787400Y-63500D01*
X1231900Y-63500D01*
X1295400Y-127000D01*
X1295400Y-585723D01*
D11*
X1022095Y-571245D02*
G01*
X1022095Y-437895D01*
X977900Y-393700D01*
X927100Y-393700D01*
D10*
X482600Y-228600D02*
G01*
X647700Y-393700D01*
X927100Y-393700D01*
D11*
X832104Y-571195D02*
G01*
X768908Y-508000D01*
X711200Y-508000D01*
D10*
X1130300Y-355600D02*
G01*
X1003300Y-228600D01*
X990600Y-228600D01*
X1130300Y-787400D02*
G01*
X1130300Y-368300D01*
X228600Y-241300D02*
G01*
X495300Y-508000D01*
X711200Y-508000D01*
D11*
X1022095Y-851154D02*
G01*
X1079500Y-850900D01*
X1130300Y-800100D01*
X1130300Y-787400D01*
D10*
X863600Y-977900D02*
G01*
X636600Y-977900D01*
X508000Y-849299D01*
D11*
X927100Y-851204D02*
G01*
X927100Y-927100D01*
X876300Y-977900D01*
D12*
G01*
X573100Y-1086104D03*
G01*
X573100Y-1276095D03*
G01*
X773099Y-1181100D03*
D13*
G01*
X832104Y-571195D03*
G01*
X927100Y-571195D03*
G01*
X1022095Y-571195D03*
G01*
X1022095Y-851204D03*
G01*
X927100Y-851204D03*
G01*
X832104Y-851204D03*
D14*
G01*
X508000Y-849302D03*
D15*
G01*
X508000Y-649300D03*
D16*
G01*
X1295400Y-585795D03*
D17*
G01*
X1295400Y-785799D03*
D18*
G01*
X990600Y-228600D03*
G01*
X228600Y-228600D03*
G01*
X482600Y-228600D03*
G01*
X736600Y-228600D03*
G01*
X228600Y-990600D03*
G01*
X228600Y-736600D03*
G01*
X228600Y-482600D03*
G01*
X1155700Y-1168400D03*
M02*
