G04 Layer: TopPasteMaskLayer*
G04 EasyEDA v6.5.34, 2023-08-04 13:32:26*
G04 bbc724a3160443c299c4a0849263c14a,cd312f753a894c7fad135853063bf967,10*
G04 Gerber Generator version 0.2*
G04 Scale: 100 percent, Rotated: No, Reflected: No *
G04 Dimensions in millimeters *
G04 leading zeros omitted , absolute positions ,4 integer and 5 decimal *
%FSLAX45Y45*%
%MOMM*%

%ADD10R,0.5500X1.0000*%
%ADD11R,1.2500X0.7000*%

%LPD*%
G36*
X496824Y-594512D02*
G01*
X491794Y-599490D01*
X491794Y-714502D01*
X496824Y-719480D01*
X538784Y-719023D01*
X538784Y-674979D01*
X583793Y-674979D01*
X583793Y-719988D01*
X624789Y-719480D01*
X629818Y-714502D01*
X629818Y-599490D01*
X624789Y-594512D01*
G37*
G36*
X496824Y-809498D02*
G01*
X491794Y-814476D01*
X491794Y-929487D01*
X496824Y-934516D01*
X624789Y-934516D01*
X629818Y-929487D01*
X629818Y-814476D01*
X624789Y-809498D01*
X583793Y-810006D01*
X583793Y-853998D01*
X538784Y-853998D01*
X538784Y-809498D01*
G37*
G36*
X1272387Y-616000D02*
G01*
X1231392Y-616508D01*
X1226413Y-621487D01*
X1226413Y-736498D01*
X1231392Y-741527D01*
X1359408Y-741527D01*
X1364386Y-736498D01*
X1364386Y-621487D01*
X1359408Y-616508D01*
X1317396Y-617016D01*
X1317396Y-661009D01*
X1272387Y-661009D01*
G37*
G36*
X1231392Y-401523D02*
G01*
X1226413Y-406501D01*
X1226413Y-521512D01*
X1231392Y-526491D01*
X1272387Y-525983D01*
X1272387Y-481990D01*
X1317396Y-481990D01*
X1317396Y-526491D01*
X1359408Y-526491D01*
X1364386Y-521512D01*
X1364386Y-406501D01*
X1359408Y-401523D01*
G37*
G36*
X1015187Y-1175613D02*
G01*
X1010208Y-1180592D01*
X1010716Y-1222603D01*
X1054709Y-1222603D01*
X1054709Y-1267612D01*
X1009700Y-1267612D01*
X1010208Y-1308608D01*
X1015187Y-1313586D01*
X1130198Y-1313586D01*
X1135227Y-1308608D01*
X1135227Y-1180592D01*
X1130198Y-1175613D01*
G37*
G36*
X800201Y-1175613D02*
G01*
X795223Y-1180592D01*
X795223Y-1308608D01*
X800201Y-1313586D01*
X915212Y-1313586D01*
X920191Y-1308608D01*
X919683Y-1267612D01*
X875690Y-1267612D01*
X875690Y-1222603D01*
X920191Y-1222603D01*
X920191Y-1180592D01*
X915212Y-1175613D01*
G37*
D10*
G01*
X832104Y-571195D03*
G01*
X927100Y-571195D03*
G01*
X1022095Y-571195D03*
G01*
X1022095Y-851204D03*
G01*
X927100Y-851204D03*
G01*
X832104Y-851204D03*
D11*
G01*
X471500Y-1086104D03*
G01*
X471500Y-1276095D03*
G01*
X671499Y-1181100D03*
M02*
