G04 Layer: TopPasteMaskLayer*
G04 EasyEDA v6.5.22, 2023-01-29 16:20:57*
G04 7520cde8495a43b9bb6cbe3639bf649a,cd312f753a894c7fad135853063bf967,10*
G04 Gerber Generator version 0.2*
G04 Scale: 100 percent, Rotated: No, Reflected: No *
G04 Dimensions in millimeters *
G04 leading zeros omitted , absolute positions ,4 integer and 5 decimal *
%FSLAX45Y45*%
%MOMM*%

%ADD10R,1.2500X0.7000*%
%ADD11R,0.5500X1.0000*%

%LPD*%
G36*
X446024Y-581812D02*
G01*
X440994Y-586790D01*
X440994Y-701802D01*
X446024Y-706780D01*
X487984Y-706323D01*
X487984Y-662279D01*
X532993Y-662279D01*
X532993Y-707288D01*
X573989Y-706780D01*
X579018Y-701802D01*
X579018Y-586790D01*
X573989Y-581812D01*
G37*
G36*
X446024Y-796798D02*
G01*
X440994Y-801776D01*
X440994Y-916787D01*
X446024Y-921816D01*
X573989Y-921816D01*
X579018Y-916787D01*
X579018Y-801776D01*
X573989Y-796798D01*
X532993Y-797306D01*
X532993Y-841298D01*
X487984Y-841298D01*
X487984Y-796798D01*
G37*
G36*
X1272387Y-730300D02*
G01*
X1231392Y-730808D01*
X1226413Y-735787D01*
X1226413Y-850798D01*
X1231392Y-855827D01*
X1359408Y-855827D01*
X1364386Y-850798D01*
X1364386Y-735787D01*
X1359408Y-730808D01*
X1317396Y-731316D01*
X1317396Y-775309D01*
X1272387Y-775309D01*
G37*
G36*
X1231392Y-515823D02*
G01*
X1226413Y-520801D01*
X1226413Y-635812D01*
X1231392Y-640791D01*
X1272387Y-640283D01*
X1272387Y-596290D01*
X1317396Y-596290D01*
X1317396Y-640791D01*
X1359408Y-640791D01*
X1364386Y-635812D01*
X1364386Y-520801D01*
X1359408Y-515823D01*
G37*
D10*
G01*
X573100Y-1086104D03*
G01*
X573100Y-1276095D03*
G01*
X773099Y-1181100D03*
D11*
G01*
X832104Y-571195D03*
G01*
X927100Y-571195D03*
G01*
X1022095Y-571195D03*
G01*
X1022095Y-851204D03*
G01*
X927100Y-851204D03*
G01*
X832104Y-851204D03*
M02*
